<svg width="13" height="13" viewBox="0 0 13 13" fill="none" xmlns="http://www.w3.org/2000/svg">
<path d="M12.3475 12.7937C12.2467 12.801 12.1426 12.7662 12.0542 12.6778L9.63663 10.2602C8.71286 11.0403 7.51568 11.5094 6.22212 11.5094C3.30609 11.5094 0.934836 9.13814 0.934836 6.22212C0.934836 3.30609 3.30609 0.934836 6.22212 0.934836C9.13811 0.934836 11.5094 3.30605 11.5094 6.22203C11.5094 6.22206 11.5094 6.22209 11.5094 6.22212H11.4442C11.4459 7.50917 10.9689 8.75085 10.1059 9.70572L12.3475 12.7937ZM12.3475 12.7937C12.4465 12.7866 12.5377 12.7394 12.6054 12.6722C12.6731 12.605 12.7208 12.5143 12.728 12.416C12.7354 12.3159 12.7005 12.2129 12.6119 12.1262C12.6118 12.1261 12.6117 12.126 12.6116 12.1259L10.1955 9.70325L12.3475 12.7937ZM1.72055 6.22212C1.72055 3.73896 3.74474 1.72121 6.22146 1.72121C8.70468 1.72121 10.7224 3.73889 10.7224 6.22212C10.7224 8.70534 8.70468 10.723 6.22146 10.723C3.74474 10.723 1.72055 8.70528 1.72055 6.22212Z" fill="white" stroke="white" stroke-width="0.130328"/>
</svg>
