<svg width="20" height="20" viewBox="0 0 20 20" fill="none" xmlns="http://www.w3.org/2000/svg">
<path d="M18.4621 19.0983C18.3074 19.1094 18.1477 19.056 18.012 18.9203L14.302 15.2103C12.8844 16.4075 11.0472 17.1273 9.06215 17.1273C4.58725 17.1273 0.94834 13.4884 0.94834 9.01353C0.94834 4.53862 4.58725 0.899711 9.06215 0.899711C13.537 0.899711 17.1759 4.53855 17.176 9.0134L18.4621 19.0983ZM18.4621 19.0983C18.6141 19.0874 18.754 19.0149 18.8579 18.9117M18.4621 19.0983L18.8579 18.9117M18.8579 18.9117C18.9618 18.8086 19.0349 18.6695 19.0461 18.5186M18.8579 18.9117L19.0461 18.5186M19.0461 18.5186C19.0574 18.365 19.0038 18.2069 18.8679 18.0738M19.0461 18.5186L18.8679 18.0738M18.8679 18.0738C18.8677 18.0736 18.8676 18.0735 18.8675 18.0734M18.8679 18.0738L18.8675 18.0734M18.8675 18.0734L15.1596 14.3556C16.4606 12.8816 17.1785 10.9817 17.176 9.01353L18.8675 18.0734ZM2.15409 9.01353C2.15409 5.20289 5.26039 2.10647 9.06115 2.10647C12.8719 2.10647 15.9682 5.20279 15.9682 9.01353C15.9682 12.8243 12.8719 15.9206 9.06115 15.9206C5.26039 15.9206 2.15409 12.8242 2.15409 9.01353Z" fill="white" stroke="white" stroke-width="0.2"/>
</svg>
